<?xml version="1.0" standalone="no"?>
<!DOCTYPE svg PUBLIC "-//W3C//DTD SVG 20010904//EN"
 "http://www.w3.org/TR/2001/REC-SVG-20010904/DTD/svg10.dtd">
<svg version="1.0" xmlns="http://www.w3.org/2000/svg"
 width="40.000000pt" height="40.000000pt" viewBox="0 0 40.000000 40.000000"
 preserveAspectRatio="xMidYMid meet">

<g transform="translate(0.000000,40.000000) scale(0.100000,-0.100000)"
fill="#000000" stroke="none">
<path d="M167 292 c-10 -10 -17 -23 -17 -28 0 -5 5 -1 11 9 16 28 28 19 16
-13 -9 -24 -8 -36 7 -66 17 -36 17 -37 -1 -24 -10 8 -2 -3 17 -24 54 -58 65
-61 103 -31 48 40 87 95 87 125 0 59 -47 85 -105 58 -19 -9 -28 -9 -37 0 -18
18 -63 14 -81 -6z"/>
<path d="M32 193 l3 -108 65 0 c60 0 65 2 68 23 3 20 -1 22 -42 22 l-46 0 0
85 c0 84 0 85 -25 85 l-26 0 3 -107z"/>
<path d="M150 211 c0 -6 4 -13 10 -16 6 -3 7 1 4 9 -7 18 -14 21 -14 7z"/>
</g>
</svg>
